<?xml version="1.0" encoding="utf-8"?>
<svg version="1.1" xmlns:xlink="http://www.w3.org/1999/xlink" width="20px" height="17px" xmlns="http://www.w3.org/2000/svg">
  <g transform="matrix(1 0 0 1 -268 -12 )">
    <path d="M 12.007341215173772 7.305988212738472  C 12.18777985998317 7.305988212738477  12.342440773054303 7.382016480274295  12.445548573380588 7.483387249380799  C 12.54865637370687 7.584758018487301  12.62598840123795 7.736813972000221  12.62598840123795 7.939555510213228  C 12.62598840123795 9.30806089692737  12.62598840123795 10.701908709685087  12.62598840123795 12.070414096399231  C 12.62598840123795 12.881380249251254  11.337139933052145 12.881380249251254  11.337139933052145 12.070414096399231  C 11.337139933052145 11.183419879934576  11.337139933052145 10.296425300939802  11.337139933052145 9.43477375220546  C 8.86255266376432 11.89301481807016  6.336412527559794 14.351255642248116  3.8360484560713943 16.809496708112814  C 3.7071637075840735 16.936210167607765  3.57827856730814 16.986896711502116  3.475170766981858 16.986896711502116  C 3.2947321221724595 17.012239403778743  3.1142938614695446 16.961552865548924  2.933855216660147 16.809496708112814  C 0.4850449954010472 14.300570306787485  -0.5718101634403197 10.777936712876036  0.3046061508562784 7.382016095086048  C 1.9285540309621534 1.173056579833453  9.378091166057308 -1.918752146036116  15.049020099499435 1.2744271299113448  C 20.77150312899901 4.518291741319437  21.622144730634293 12.222469377720893  17.13695558160678 16.809496708112814  C 16.569862675971162 17.39237860970525  15.641891528132671 16.505384393240597  16.234761358882942 15.92250249164816  C 18.709348628170762 13.41357609032283  19.508434167123415 9.688200912882106  18.090701933762883 6.444336301474015  C 16.72452355063165 3.30184260267393  13.502403609307878 1.2490843413376571  10.048292448178932 1.2490843413376571  C 6.59418128704999 1.2490843413376571  3.3720633123514085 3.3271851495608744  2.005884929220176 6.444336301474015  C 0.6654835941176668 9.485459329352835  1.3099073365542722 12.95740903792412  3.4236171625807077 15.440992892362505  C 5.743542635352487 13.160150621453388  8.089244664496691 10.853965078597097  10.409170137268472 8.57312280768798  C 9.506976897857223 8.57312280768798  8.60478378136005 8.57312280768798  7.728367467063453 8.57312280768798  C 6.90350506445319 8.57312280768798  6.90350506445319 7.305988212738472  7.728367467063453 7.305988212738472  C 9.146099700423985 7.305988212738472  10.589608981813239 7.305988212738472  12.007341215173772 7.305988212738472  Z " fill-rule="nonzero" fill="#ffffff" stroke="none" fill-opacity="0.5019607843137255" transform="matrix(1 0 0 1 268 12 )" />
  </g>
</svg>